:version 1.10
:name ASF
:units
  mass 1
  length 1
  angle deg
:documentation
  ASF file generated by Kaydara
:root
  axis xyz
  order  tx ty tz rx ry rz
  position 0 0 0
  orientation 0 0 0
:bonedata
  begin
    id 1
    name RightUpLegDummy
    direction -0.718183 -0.695806 0.00816078
    length 4.904
    axis 0 0 0 xyz
  end
  begin
    id 2
    name RightUpLeg
    direction 3.53989e-006 -0.995788 0.0916897
    length 17.4976
    axis -3.49089 -0.000906621 0.000287158 xyz
    dof rx ry rz
  end
  begin
    id 3
    name RightLeg
    direction 0.00371093 -0.995096 -0.0988418
    length 16.5821
    axis 3.68512 0.0193738 -0.131023 xyz
    dof rx ry rz
  end
  begin
    id 4
    name RightFoot
    direction 0.000791514 -0.46099 0.887405
    length 3.77069
    axis 4.84075e-005 -0.120479 -0.188788 xyz
    dof rx ry rz
  end
  begin
    id 5
    name RightToes
    direction 0.00124746 -0.014064 0.9999
    length 3.85082
    axis 0.00048216 0.542163 -0.142577 xyz
    dof rx ry rz
  end
  begin
    id 6
    name SpineDummy
    direction 8.3039e-015 1 4.57515e-016
    length 4.6813
    axis 0 0 0 xyz
  end
  begin
    id 7
    name Spine
    direction -4.63632e-008 0.999988 0.00495137
    length 10.1015
    axis -0.00138897 0.000121419 3.25764e-006 xyz
    dof rx ry rz
  end
  begin
    id 8
    name Spine1
    direction 0 0 0
    length 0
    axis -0.00138896 0.000121452 2.39764e-006 xyz
    dof rx ry rz
  end
  begin
    id 9
    name HEadDummy
    direction -3.91456e-008 0.999999 0.00127422
    length 3.43865
    axis -0.00138896 0.000121452 2.39764e-006 xyz
  end
  begin
    id 10
    name HEad
    direction -0.0222688 0.980941 0.193023
    length 5.12695
    axis -0.00138895 0.000121452 2.39764e-006 xyz
    dof rx ry rz
  end
  begin
    id 11
    name LeftShoulder1Dummy
    direction 0.998891 -0.0402508 -0.0244456
    length 3.5433
    axis -0.00138896 0.000121452 2.39764e-006 xyz
  end
  begin
    id 12
    name LeftShoulder1
    direction 0.99951 -0.000327743 0.0313091
    length 4.05031
    axis -0.00138896 0.000121452 2.39764e-006 xyz
    dof rx ry rz
  end
  begin
    id 13
    name LeftArm
    direction 0.998561 -0.00100054 -0.0536182
    length 10.3537
    axis -23.1894 0.134784 0.96751 xyz
    dof rx ry rz
  end
  begin
    id 14
    name LeftForeArm
    direction 0.998903 0.00866434 0.046012
    length 8.70632
    axis -9.91835 -0.06569 -0.177792 xyz
    dof rx ry rz
  end
  begin
    id 15
    name LeftHand
    direction 0.992938 -0.0411636 0.11126
    length 5.32135
    axis -0.00960227 -0.00340091 0.185174 xyz
    dof rx ry rz
  end
  begin
    id 16
    name RightShoulderDummy
    direction -0.998891 -0.0402509 -0.0244414
    length 3.5433
    axis -0.00138896 0.000121452 2.39764e-006 xyz
  end
  begin
    id 17
    name RightShoulder
    direction -0.99951 -0.000327827 0.0313133
    length 4.05031
    axis 0.215806 0.000203644 -0.00680151 xyz
    dof rx ry rz
  end
  begin
    id 18
    name RightArm
    direction -0.998573 -0.000999583 -0.053403
    length 10.3947
    axis -23.2009 -0.134239 -0.9641 xyz
    dof rx ry rz
  end
  begin
    id 19
    name RightForeArm
    direction -0.998898 0.00868026 0.0461306
    length 8.68355
    axis -9.92322 0.0658061 0.178869 xyz
    dof rx ry rz
  end
  begin
    id 20
    name RightHand
    direction -0.992843 -0.0414603 0.112003
    length 5.28593
    axis -0.00960634 0.00330671 -0.185226 xyz
    dof rx ry rz
  end
  begin
    id 21
    name LeftUpLegDummy
    direction 0.718183 -0.695806 0.00816078
    length 4.904
    axis 0 0 0 xyz
  end
  begin
    id 22
    name LeftUpLeg
    direction -6.8115e-006 -0.995793 0.0916336
    length 17.4976
    axis -3.48766 0.00143441 -0.000523914 xyz
    dof rx ry rz
  end
  begin
    id 23
    name LeftLeg
    direction -0.00601357 -0.995091 -0.0987824
    length 16.5821
    axis 3.68177 -0.00654038 -0.00028478 xyz
    dof rx ry rz
  end
  begin
    id 24
    name LeftFoot
    direction -0.00417578 -0.460984 0.887399
    length 3.77069
    axis 1.87232e-006 4.66002e-005 -8.1837e-006 xyz
    dof rx ry rz
  end
  begin
    id 25
    name LeftToes
    direction 0.00818058 -0.00485161 0.999955
    length 3.85048
    axis 1.06246e-005 4.65855e-005 -8.18502e-006 xyz
    dof rx ry rz
  end
:hierarchy
  begin
    root RightUpLegDummy SpineDummy LeftUpLegDummy
    RightUpLegDummy RightUpLeg
    RightUpLeg RightLeg
    RightLeg RightFoot
    RightFoot RightToes
    SpineDummy Spine
    Spine Spine1
    Spine1 HEadDummy LeftShoulder1Dummy RightShoulderDummy
    HEadDummy HEad
    LeftShoulder1Dummy LeftShoulder1
    LeftShoulder1 LeftArm
    LeftArm LeftForeArm
    LeftForeArm LeftHand
    RightShoulderDummy RightShoulder
    RightShoulder RightArm
    RightArm RightForeArm
    RightForeArm RightHand
    LeftUpLegDummy LeftUpLeg
    LeftUpLeg LeftLeg
    LeftLeg LeftFoot
    LeftFoot LeftToes
  end

:SAMPLES-PER-SECOND 30
:FRAME-RANGE 1-2009
:FULLY-SPECIFIED
:DEGREES
1
root  31.2239 38.7901 -149.006 -177.421 -64.3878 -179.153
RightUpLeg  0.857918 -1.19747 3.33351
RightLeg  14.7947 16.8906 4.64989
RightFoot  -23.2824 0.431804 5.63581
RightToes  2.96424e-010 1.2921e-014 -6.02303e-014
Spine  -4.5677 -1.42464 1.28777
Spine1  8.2395 -1.78118 0.373026
HEad  35.345 -9.48647 1.96725
LeftShoulder1  0.256451 2.34856 -21.5755
LeftArm  -5.39394 19.7854 -45.575
LeftForeArm  30.5424 5.84675 -11.8632
LeftHand  0.0357963 6.99633 4.87355
RightShoulder  1.22998 0.363743 27.4702
RightArm  -26.9401 -9.29489 48.589
RightForeArm  62.6296 -5.562 3.41543
RightHand  0.151718 -6.58224 -16.3496
LeftUpLeg  -21.4715 -0.495045 -7.43935
LeftLeg  9.94623 35.3954 5.25212
LeftFoot  -4.02389 -0.448293 7.38
LeftToes  -1.2485e-010 1.20979e-011 -1.0929e-011
2
root  30.7666 38.7221 -149.457 -175.455 -64.9084 179.281
RightUpLeg  0.937384 -0.740036 3.07592
RightLeg  15.4822 16.1838 4.719
RightFoot  -23.9349 0.477183 5.79285
RightToes  2.96424e-010 1.2921e-014 -6.02303e-014
Spine  -4.58222 -1.48194 -0.521668
Spine1  7.78249 -1.67154 0.00943771
HEad  34.0467 -6.59868 3.38007
LeftShoulder1  0.256451 2.35753 -20.9041
LeftArm  -1.57941 19.2096 -44.3742
LeftForeArm  27.6338 4.72717 -13.3653
LeftHand  -0.00761369 5.98261 3.9875
RightShoulder  1.19536 0.174917 28.3137
RightArm  -31.0045 -8.60939 49.0208
RightForeArm  67.1035 -5.01264 1.11739
RightHand  -0.0367224 -5.22631 -16.7822
LeftUpLeg  -22.1118 -0.898504 -7.9617
LeftLeg  11.8476 34.77 6.52629
LeftFoot  -2.89506 -0.542292 7.5692
LeftToes  -1.2485e-010 1.20979e-011 -1.0929e-011
3
root  30.3098 38.6312 -149.905 -173.167 -66.1563 177.338
RightUpLeg  0.0562218 -0.713857 2.67126
RightLeg  18.243 15.4274 5.4075
RightFoot  -24.5597 0.534361 6.04653
RightToes  2.96424e-010 1.2921e-014 -6.02303e-014
Spine  -4.16398 -1.67279 -2.38064
Spine1  6.95343 -1.74724 -0.186067
HEad  32.0825 -3.24593 4.60561
LeftShoulder1  0.264599 2.31168 -20.4442
LeftArm  -1.78854 18.1081 -44.0146
LeftForeArm  28.6905 4.95748 -13.2107
LeftHand  -0.0353549 4.9915 3.37114
RightShoulder  1.18243 0.0717094 28.9966
RightArm  -29.3881 -9.40638 48.5508
RightForeArm  65.1785 -5.24725 2.0836
RightHand  0.0712478 -5.99753 -16.467
LeftUpLeg  -22.9084 -0.323513 -8.84523
LeftLeg  14.5033 32.374 7.48068
LeftFoot  -3.92195 -0.444749 7.21475
LeftToes  -1.2485e-010 1.20979e-011 -1.0929e-011
4
root  29.8371 38.5555 -150.266 -171.897 -67.2098 176.392
RightUpLeg  -1.52919 -2.86198 1.91562
RightLeg  22.8464 17.3176 7.65279
RightFoot  -24.6183 0.714926 7.57084
RightToes  2.96424e-010 1.2921e-014 -6.02303e-014
Spine  -4.35235 -1.54368 -3.23897
Spine1  7.18463 -1.51918 -0.683231
HEad  29.9734 -0.416932 4.92407
LeftShoulder1  0.341705 2.007 -20.1044
LeftArm  -4.90653 16.6097 -45.0371
LeftForeArm  31.2153 6.20656 -11.9055
LeftHand  -0.00742929 5.88943 4.52518
RightShoulder  1.21593 0.180744 28.8657
RightArm  -29.5846 -9.78627 48.7482
RightForeArm  65.1723 -5.23586 2.01469
RightHand  0.075519 -6.02748 -16.4792
LeftUpLeg  -23.4449 -0.615173 -9.30875
LeftLeg  16.7178 30.8783 8.63847
LeftFoot  -4.65734 -0.371773 6.8395
LeftToes  -1.2485e-010 1.20979e-011 -1.0929e-011
5
root  29.3392 38.533 -150.54 -171.129 -67.7945 175.635
RightUpLeg  -4.00313 -4.42671 0.682335
RightLeg  29.9038 19.5737 11.5826
RightFoot  -23.5072 0.999013 10.8469
RightToes  2.96424e-010 1.2921e-014 -6.02303e-014
Spine  -4.19976 -1.3167 -3.63666
Spine1  7.13022 -1.24207 -1.16053
HEad  28.744 2.48702 4.45285
LeftShoulder1  0.328042 2.06441 -20.2303
LeftArm  -1.27096 16.0113 -45.0168
LeftForeArm  27.5505 4.08458 -13.3897
LeftHand  0.0127077 6.38793 4.83649
RightShoulder  1.25783 0.32045 28.6802
RightArm  -29.3053 -9.77209 48.642
RightForeArm  65.8493 -5.23261 2.14277
RightHand  0.0680076 -5.91937 -16.2802
LeftUpLeg  -23.2419 -0.949156 -9.70899
LeftLeg  18.2226 29.9391 9.40719
LeftFoot  -6.1228 -0.27462 6.82819
LeftToes  -1.2485e-010 1.20979e-011 -1.0929e-011
6
root  28.8577 38.4212 -150.749 -169.238 -68.439 173.377
RightUpLeg  -7.17201 -4.99541 -1.49247
RightLeg  38.5474 20.4814 16.4551
RightFoot  -22.4487 1.6504 18.4052
RightToes  2.96424e-010 1.2921e-014 -6.02303e-014
Spine  -3.85569 -1.24092 -4.59453
Spine1  7.15525 -1.16743 -1.66912
HEad  27.6502 5.94371 3.41756
LeftShoulder1  0.303492 2.16729 -20.4813
LeftArm  -5.21662 15.1707 -46.5465
LeftForeArm  31.2849 5.01407 -11.7822
LeftHand  -0.0211179 5.5035 4.29369
RightShoulder  1.27447 0.400259 28.3766
RightArm  -28.9341 -9.60793 48.484
RightForeArm  66.0726 -5.25286 2.31205
RightHand  0.0562504 -5.90549 -16.0862
LeftUpLeg  -23.0002 -1.62419 -10.741
LeftLeg  20.3249 29.106 10.5202
LeftFoot  -8.21607 -0.12356 6.3377
LeftToes  -1.2485e-010 1.20979e-011 -1.0929e-011
7
root  28.344 38.3461 -150.932 -167.297 -69.6097 170.931
RightUpLeg  -10.7251 -5.49694 -3.29761
RightLeg  46.4378 13.4759 14.4519
RightFoot  -20.0813 1.22339 17.6742
RightToes  2.96424e-010 1.2921e-014 -6.02303e-014
Spine  -3.65203 -1.31525 -5.06788
Spine1  7.23812 -1.26979 -2.10796
HEad  26.8704 8.39524 2.29192
LeftShoulder1  0.340004 2.0392 -20.6775
LeftArm  -6.0036 14.6132 -47.6654
LeftForeArm  33.0518 4.57391 -11.4555
LeftHand  -0.0229653 5.46021 4.02478
RightShoulder  1.25371 0.39472 27.8476
RightArm  -29.1733 -9.90877 48.8066
RightForeArm  65.424 -5.2629 2.22981
RightHand  0.0545231 -5.88555 -16.2706
LeftUpLeg  -22.1281 -1.92547 -11.7795
LeftLeg  21.4446 27.9369 10.7451
LeftFoot  -9.78387 -0.0226499 5.99567
LeftToes  -1.2485e-010 1.20979e-011 -1.0929e-011
8
root  27.7896 38.4489 -151.077 -166.877 -71.6478 169.804
RightUpLeg  -13.3972 -6.10773 -4.26979
RightLeg  52.0199 3.27593 4.13834
RightFoot  -16.389 0.402818 11.6332
RightToes  2.96424e-010 1.2921e-014 -6.02303e-014
Spine  -2.96797 -1.59118 -4.55498
Spine1  6.67955 -1.70549 -1.86495
HEad  26.0717 10.5356 1.02369
LeftShoulder1  0.395042 1.87631 -21.5185
LeftArm  -4.42905 12.9051 -47.9902
LeftForeArm  34.0395 5.08858 -12.0948
LeftHand  -0.0541931 4.02125 2.95924
RightShoulder  1.21259 0.328051 27.3122
RightArm  -28.7082 -10.2987 48.7456
RightForeArm  63.5291 -4.81567 2.62644
RightHand  0.0371953 -5.75339 -16.4891
LeftUpLeg  -19.9546 -2.11327 -12.2325
LeftLeg  20.6129 26.4857 9.88188
LeftFoot  -10.6528 0.0278795 6.02808
LeftToes  -1.2485e-010 1.20979e-011 -1.0929e-011
9
root  27.1817 38.6276 -151.197 -167.306 -74.2006 169.747
RightUpLeg  -15.4715 -4.88588 -4.49885
RightLeg  55.558 -4.30631 -7.13408
RightFoot  -12.2962 -0.0579999 3.04393
RightToes  2.96424e-010 1.2921e-014 -6.02303e-014
Spine  -2.77348 -1.95969 -3.35857
Spine1  6.3489 -2.16331 -1.56969
HEad  25.2535 12.4461 -0.323748
LeftShoulder1  0.41617 1.83602 -22.2407
LeftArm  -3.30368 11.3693 -48.7693
LeftForeArm  34.8233 4.99997 -12.5383
LeftHand  -0.0392453 4.83952 3.43324
RightShoulder  1.15055 0.15656 27.155
RightArm  -28.11 -10.4623 48.2152
RightForeArm  61.8299 -4.46505 3.01512
RightHand  0.0179423 -5.61291 -16.6296
LeftUpLeg  -17.5035 -2.85745 -12.4068
LeftLeg  19.1254 25.0797 9.23732
LeftFoot  -11.218 0.0609388 6.11679
LeftToes  -1.2485e-010 1.20979e-011 -1.0929e-011
10
root  26.6432 38.7019 -151.337 -166.143 -76.9547 168.394
RightUpLeg  -17.0218 -2.01609 -5.27068
RightLeg  56.3871 -8.01536 -13.1449
RightFoot  -12.7925 -0.0841836 0.1903
RightToes  2.96424e-010 1.2921e-014 -6.02303e-014
Spine  -2.79462 -2.26012 -2.66624
Spine1  6.07836 -2.44822 -1.73386
HEad  24.283 13.9213 -1.00882
LeftShoulder1  0.482074 1.59325 -22.0617
LeftArm  -3.00939 9.68972 -50.2308
LeftForeArm  36.6415 5.43971 -12.66
LeftHand  -0.048917 4.3812 3.22696
RightShoulder  1.09211 -0.0562372 27.5327
RightArm  -27.9309 -10.6606 47.4696
RightForeArm  61.0363 -4.34907 3.10992
RightHand  -0.0102554 -5.41288 -16.6741
LeftUpLeg  -15.9178 -3.24288 -12.676
LeftLeg  18.5512 23.1912 8.63989
LeftFoot  -12.2055 0.118169 5.92389
LeftToes  -1.2485e-010 1.20979e-011 -1.0929e-011
11
root  26.1338 38.7138 -151.497 -164.337 -79.9819 166.494
RightUpLeg  -17.9805 1.93118 -6.4242
RightLeg  53.7766 -7.58873 -11.3417
RightFoot  -14.8062 -0.0857233 0.478717
RightToes  2.96424e-010 1.2921e-014 -6.02303e-014
Spine  -2.58358 -2.54962 -2.52932
Spine1  5.71752 -2.8491 -1.46578
HEad  22.9391 15.7273 -1.90315
LeftShoulder1  0.522174 1.46618 -22.3106
LeftArm  -2.36706 8.71624 -51.2573
LeftForeArm  38.2675 3.85176 -12.7936
LeftHand  -0.0534116 4.17788 2.91861
RightShoulder  1.05929 -0.159788 27.5899
RightArm  -27.9765 -10.9724 46.9826
RightForeArm  61.0977 -4.37419 3.0725
RightHand  0.00893856 -5.5482 -16.6868
LeftUpLeg  -14.9053 -3.30461 -12.7031
LeftLeg  18.9388 20.6413 8.19801
LeftFoot  -13.2858 0.181276 5.96609
LeftToes  -1.2485e-010 1.20979e-011 -1.0929e-011
12
root  25.6064 38.7696 -151.66 -162.626 -83.5233 164.856
RightUpLeg  -18.388 6.2204 -7.19316
RightLeg  48.2704 -5.54233 -6.94267
RightFoot  -14.625 -0.0541383 1.56602
RightToes  2.96424e-010 1.2921e-014 -6.02303e-014
Spine  -2.75405 -2.77614 -2.33158
Spine1  5.8277 -3.24508 -0.652224
HEad  21.0082 17.1171 -2.90798
LeftShoulder1  0.655874 1.02339 -22.6812
LeftArm  -0.571626 6.68904 -52.172
LeftForeArm  39.9089 2.66523 -13.242
LeftHand  -0.0533575 3.93114 2.58638
RightShoulder  0.99665 -0.335795 27.4554
RightArm  -28.1784 -11.1445 46.7663
RightForeArm  61.1875 -4.7157 2.90659
RightHand  0.0301614 -5.69263 -16.89
LeftUpLeg  -13.9442 -2.85897 -12.0616
LeftLeg  19.0602 17.0771 6.90996
LeftFoot  -14.2099 0.23515 5.97184
LeftToes  -1.2485e-010 1.20979e-011 -1.0929e-011
